<?xml version="1.0" encoding="UTF-8" standalone="no"?>
<!-- Created with Inkscape (http://www.inkscape.org/) -->

<svg
   version="1.1"
   id="svg1"
   width="1348.6267"
   height="1061.9467"
   viewBox="0 0 1348.6267 1061.9467"
   sodipodi:docname="csz_sanjose_logo.svg"
   inkscape:version="1.3 (0e150ed6c4, 2023-07-21)"
   xmlns:inkscape="http://www.inkscape.org/namespaces/inkscape"
   xmlns:sodipodi="http://sodipodi.sourceforge.net/DTD/sodipodi-0.dtd"
   xmlns="http://www.w3.org/2000/svg"
   xmlns:svg="http://www.w3.org/2000/svg">
  <defs
     id="defs1">
    <linearGradient
       id="swatch32"
       inkscape:swatch="solid">
      <stop
         style="stop-color:#f8f8f8;stop-opacity:1;"
         offset="0"
         id="stop32" />
    </linearGradient>
    <clipPath
       clipPathUnits="userSpaceOnUse"
       id="clipPath8">
      <path
         d="M 0,796.46 H 1011.472 V 0 H 0 Z"
         transform="translate(-125.0436,-272.0175)"
         id="path8" />
    </clipPath>
    <clipPath
       clipPathUnits="userSpaceOnUse"
       id="clipPath10">
      <path
         d="M 0,796.46 H 1011.472 V 0 H 0 Z"
         transform="translate(-325.99651,-364.04381)"
         id="path10" />
    </clipPath>
    <clipPath
       clipPathUnits="userSpaceOnUse"
       id="clipPath12">
      <path
         d="M 0,796.46 H 1011.472 V 0 H 0 Z"
         transform="translate(-529.36381,-315.51911)"
         id="path12" />
    </clipPath>
    <clipPath
       clipPathUnits="userSpaceOnUse"
       id="clipPath14">
      <path
         d="M 0,796.46 H 1011.472 V 0 H 0 Z"
         transform="translate(-659.36792,-309.51771)"
         id="path14" />
    </clipPath>
    <clipPath
       clipPathUnits="userSpaceOnUse"
       id="clipPath16">
      <path
         d="M 0,796.46 H 1011.472 V 0 H 0 Z"
         transform="translate(-891.49712,-631.13682)"
         id="path16" />
    </clipPath>
    <clipPath
       clipPathUnits="userSpaceOnUse"
       id="clipPath18">
      <path
         d="M 0,796.46 H 1011.472 V 0 H 0 Z"
         transform="translate(-907.5352,-631.13682)"
         id="path18" />
    </clipPath>
    <clipPath
       clipPathUnits="userSpaceOnUse"
       id="clipPath20">
      <path
         d="M 0,796.46 H 1011.472 V 0 H 0 Z"
         transform="translate(-272.5888,-146.7912)"
         id="path20" />
    </clipPath>
    <clipPath
       clipPathUnits="userSpaceOnUse"
       id="clipPath22">
      <path
         d="M 0,796.46 H 1011.472 V 0 H 0 Z"
         transform="translate(-379.07861,-132.13391)"
         id="path22" />
    </clipPath>
    <clipPath
       clipPathUnits="userSpaceOnUse"
       id="clipPath24">
      <path
         d="M 0,796.46 H 1011.472 V 0 H 0 Z"
         transform="translate(-415.81251,-112.4796)"
         id="path24" />
    </clipPath>
    <clipPath
       clipPathUnits="userSpaceOnUse"
       id="clipPath26">
      <path
         d="M 0,796.46 H 1011.472 V 0 H 0 Z"
         transform="translate(-508.35931,-110.214)"
         id="path26" />
    </clipPath>
    <clipPath
       clipPathUnits="userSpaceOnUse"
       id="clipPath28">
      <path
         d="M 0,796.46 H 1011.472 V 0 H 0 Z"
         transform="translate(-594.23051,-134.799)"
         id="path28" />
    </clipPath>
    <clipPath
       clipPathUnits="userSpaceOnUse"
       id="clipPath30">
      <path
         d="M 0,796.46 H 1011.472 V 0 H 0 Z"
         transform="translate(-626.41211,-133.466)"
         id="path30" />
    </clipPath>
    <clipPath
       clipPathUnits="userSpaceOnUse"
       id="clipPath32">
      <path
         d="M 0,796.46 H 1011.472 V 0 H 0 Z"
         transform="translate(-711.74712,-165.8459)"
         id="path32" />
    </clipPath>
  </defs>
  <sodipodi:namedview
     id="namedview1"
     pagecolor="#505050"
     bordercolor="#ffffff"
     borderopacity="1"
     inkscape:showpageshadow="0"
     inkscape:pageopacity="0"
     inkscape:pagecheckerboard="1"
     inkscape:deskcolor="#d1d1d1"
     inkscape:zoom="1.4041919"
     inkscape:cx="633.46043"
     inkscape:cy="530.55427"
     inkscape:window-width="3840"
     inkscape:window-height="2054"
     inkscape:window-x="-11"
     inkscape:window-y="-11"
     inkscape:window-maximized="1"
     inkscape:current-layer="layer-MC0">
    <inkscape:page
       x="0"
       y="0"
       inkscape:label="1"
       id="page1"
       width="1348.6267"
       height="1061.9467"
       margin="146.68666 103.13734 149.01466 147.86133"
       bleed="0" />
  </sodipodi:namedview>
  <g
     id="layer-MC0"
     inkscape:groupmode="layer"
     inkscape:label="Color">
    <path
       id="path1"
       style="fill:#ffffff;fill-opacity:1;fill-rule:nonzero;stroke:none;stroke-width:1.33333"
       d="M 1166.373 149.01367 L 841.67188 209.76562 L 815.58398 685.62891 L 806.51172 685.48438 C 803.44459 685.47288 800.37764 685.46177 797.31055 685.44727 L 819.47656 213.91602 L 494.76758 274.66602 L 494.76758 274.66797 L 494.76562 274.66797 L 494.76758 274.67188 L 529.65625 686.17773 C 523.56516 686.26193 517.47395 686.35736 511.38281 686.45312 L 472.57227 278.81836 L 148.48047 339.45703 L 147.86328 339.57227 L 245.54492 694.83203 L 230.70703 695.55664 L 198.71094 697.15625 L 166.72461 699.25586 L 166.72461 702.57617 L 1190.3848 702.57617 L 1190.3848 699.25586 L 1158.3965 697.01172 L 1126.4062 695.34766 L 1081.7324 693.0293 L 1166.373 149.01562 L 1166.373 149.01367 z M 680.44531 287.39062 C 700.05085 287.34791 726.06624 293.28936 733.82031 324.5293 C 736.53498 336.6226 736.02986 353.90827 735.64453 367.01758 L 734.95508 390.5957 L 696.16797 395.54102 C 695.89597 372.98107 695.84199 378.63837 695.97266 365.78906 C 696.13799 349.32776 693.73469 333.78941 676.80273 328.21875 C 668.55341 325.96009 660.82098 327.1813 657.70898 327.66797 C 646.89301 329.37197 637.65312 333.33279 630.5918 341.43945 C 626.5678 345.55144 624.64016 350.33318 623.66016 351.97852 C 621.73616 356.74116 620.43195 364.41129 620.75195 375.80859 C 620.83729 378.78459 621.09232 387.703 624.32031 395.73633 C 630.21496 411.44029 645.28063 423.13694 656.72461 434.40625 L 709.84961 489.42578 C 713.54961 493.77777 716.75093 498.17943 719.93359 502.60742 C 727.60691 513.47807 737.2477 532.17727 736.0957 567.39453 C 734.64237 611.55311 719.13833 630.69793 705.81836 641.25391 C 686.56107 656.80454 665.41916 656.81941 658.08984 656.83008 C 647.30453 656.84208 603.68861 655.89949 586.97266 609.90625 C 582.27933 597.45427 580.67217 584.92483 579.9375 571.88086 L 577.80273 534.21484 L 616.34766 531.57031 L 616.92578 548.82617 C 617.72578 572.51012 618.09088 583.36481 622.04688 594.57812 C 625.47087 603.87811 635.19412 619.51996 657.69141 619.0293 C 672.68738 618.69463 687.30408 610.69062 693.66406 594.58398 C 697.35606 585.70134 697.46905 576.43007 697.51172 572.83008 C 697.88372 541.91681 685.49653 529.87903 667.33789 510.81641 L 621.38281 465.71289 C 593.65487 440.54228 579.98516 423.54626 577.92383 383.76367 C 577.67316 378.90902 576.96952 365.33412 580.35352 350.63281 C 586.50816 327.08753 605.87273 298.67573 660.00195 289.34375 C 663.94778 288.665 671.53369 287.41004 680.44531 287.39062 z M 335.93945 345.80078 C 356.51391 345.96385 370.53172 351.79499 379.0957 356.83398 C 395.249 366.98996 402.97488 382.2444 408.4082 417.09766 C 409.45353 423.80565 410.57071 430.95404 411.10938 437.7207 L 370.61523 442.76953 C 368.6099 431.85489 366.51778 420.51044 363.92578 409.23047 C 361.05912 396.65316 358.32861 387.64361 344.41797 381.73828 C 339.76864 379.78895 331.78271 377.48477 319.80273 379.38477 C 308.35076 381.19543 285.42005 387.00176 284.38672 411.8457 C 283.84672 429.15633 292.11656 464.99555 302.92188 509.07812 C 308.3232 531.12208 314.08936 552.72456 320.41602 574.72852 C 323.71734 586.35916 326.65632 602.21677 336.04297 612.83008 C 347.88428 626.86338 366.64133 626.89287 371.08398 626.79688 C 374.65331 626.71954 383.53752 626.53589 390.71484 619.86523 C 403.45082 608.56659 398.53296 584.1083 395.6543 568.375 L 391.49609 545.65039 L 429.92578 542.98438 C 431.65378 554.16835 433.38211 565.34938 434.66211 576.55469 C 435.07544 579.23868 437.23022 593.10522 437.07422 603.89453 C 436.58489 637.47313 421.14961 647.83341 408.54297 653.16406 C 395.17233 658.39605 379.94217 658.39648 375.60352 658.39648 C 358.22088 658.39648 342.8279 655.89559 325.83594 645.59961 C 322.12795 643.15428 314.68533 638.30299 307.41602 631.01367 C 290.79738 614.61771 283.55738 593.60703 272.44141 553.92578 L 259.61914 508.16602 C 255.08049 491.97405 250.65647 476.17056 246.61914 459.91992 C 241.00049 437.97864 232.28424 406.76644 245.68555 384.28516 C 257.50952 364.29586 287.14806 352.26357 313.13867 347.76758 C 321.49465 346.32291 329.0813 345.74643 335.93945 345.80078 z M 1044.0098 351.0625 L 1037.4746 391.45703 L 920.48438 611.15234 L 1019.8906 608.89648 L 1013.541 648.11719 L 879.15625 649.25586 L 883.28711 612.16797 L 996.91797 396.10938 L 918.21289 405.13086 L 922.67578 366.72852 L 1044.0098 351.0625 z " />
    <path
       id="path15"
       d="m 0,0 v 26.927 h -6.995 v 3.926 H 12.591 V 26.927 H 5.596 L 5.596,0 Z"
       style="fill:#ffffff;fill-opacity:1;fill-rule:nonzero;stroke:none"
       transform="matrix(1.3333333,0,0,-1.3333333,1188.6628,220.43093)"
       clip-path="url(#clipPath16)" />
    <path
       id="path17"
       d="m 0,0 v 30.853 h 7.738 l 5.553,-23.622 5.553,23.622 h 7.738 V 0 H 20.985 V 24.345 L 15.39,0 H 11.192 L 5.597,24.345 V 0 Z"
       style="fill:#ffffff;fill-opacity:1;fill-rule:nonzero;stroke:none"
       transform="matrix(1.3333333,0,0,-1.3333333,1210.0469,220.43093)"
       clip-path="url(#clipPath18)" />
  </g>
  <g
     id="layer-MC1"
     inkscape:groupmode="layer"
     inkscape:label="City Name">
    <path
       id="path19"
       d="m 0,0 24.702,4.73 c 0,-2.443 0.044,-4.597 0.134,-6.462 0.089,-1.866 0.324,-3.898 0.703,-6.096 0.379,-2.199 0.892,-3.998 1.54,-5.397 0.646,-1.399 1.562,-2.577 2.745,-3.531 1.181,-0.956 2.577,-1.432 4.184,-1.432 4.82,0 7.23,3.064 7.23,9.194 0,8.394 -4.754,16.744 -14.259,25.051 l -7.565,6.395 c -2.41,1.999 -4.33,3.664 -5.758,4.997 -1.428,1.332 -3.113,3.131 -5.054,5.397 -1.941,2.264 -3.459,4.452 -4.552,6.562 -1.094,2.109 -2.031,4.653 -2.812,7.628 -0.781,2.976 -1.171,6.13 -1.171,9.461 0,9.728 3.101,17.422 9.305,23.085 6.203,5.663 14.437,8.495 24.703,8.495 8.524,0 15.776,-3.021 21.757,-9.061 5.98,-6.041 8.97,-13.325 8.97,-21.853 L 64.735,56.297 V 54.299 L 39.564,50.834 c 0,0.488 0.034,1.255 0.101,2.299 0.066,1.043 0.1,1.898 0.1,2.564 0,1.6 -0.112,3.132 -0.335,4.598 -0.224,1.466 -0.592,2.932 -1.104,4.396 -0.514,1.466 -1.306,2.632 -2.377,3.498 -1.071,0.867 -2.366,1.299 -3.883,1.299 -2.677,0 -4.686,-1.044 -6.025,-3.131 -1.339,-2.087 -2.008,-4.553 -2.008,-7.395 0,-2.487 0.39,-4.819 1.172,-6.995 0.78,-2.177 1.963,-4.209 3.547,-6.097 1.584,-1.888 3.046,-3.454 4.385,-4.696 1.339,-1.244 3.124,-2.766 5.356,-4.565 2.231,-1.798 3.816,-3.12 4.753,-3.963 3.436,-3.021 6.337,-5.853 8.703,-8.495 2.365,-2.643 4.596,-5.63 6.694,-8.961 2.097,-3.331 3.67,-6.928 4.72,-10.793 1.048,-3.864 1.573,-8.04 1.573,-12.525 0,-8.394 -3.013,-15.268 -9.038,-20.62 -6.024,-5.354 -13.344,-8.028 -21.958,-8.028 -5.579,0 -10.533,1.022 -14.861,3.064 -4.329,2.042 -7.822,4.818 -10.477,8.328 -2.656,3.508 -4.697,7.396 -6.125,11.659 C 1.048,-9.461 0.223,-4.887 0,0"
       style="fill:#ffffff;fill-opacity:1;fill-rule:nonzero;stroke:none"
       transform="matrix(1.3333333,0,0,-1.3333333,363.45173,866.22507)"
       clip-path="url(#clipPath20)" />
    <path
       id="path21"
       d="M 0,0 V 21.386 C -7.409,15.434 -11.112,8.904 -11.112,1.799 c 0,-1.778 0.344,-3.298 1.037,-4.564 0.692,-1.266 1.863,-1.899 3.514,-1.899 0.938,0 1.864,0.3 2.779,0.899 0.914,0.6 1.573,1.121 1.975,1.566 C -1.406,-1.755 -0.803,-1.022 0,0 m 4.552,-19.654 -2.209,8.994 c -1.295,-4.042 -3.414,-6.874 -6.36,-8.494 -2.945,-1.621 -6.605,-2.432 -10.978,-2.432 -3.213,0 -6.026,0.622 -8.435,1.865 -2.41,1.243 -4.296,2.92 -5.657,5.031 -1.362,2.108 -2.366,4.374 -3.013,6.794 -0.647,2.421 -0.97,4.964 -0.97,7.629 0,3.02 0.311,5.819 0.937,8.395 0.624,2.575 1.416,4.852 2.377,6.829 0.959,1.976 2.298,3.874 4.016,5.696 1.718,1.821 3.391,3.365 5.021,4.63 1.629,1.267 3.715,2.576 6.259,3.932 2.544,1.353 4.82,2.486 6.829,3.397 2.008,0.91 4.529,1.988 7.564,3.232 v 7.328 c 0,3.065 -0.379,5.352 -1.138,6.862 -0.759,1.51 -2.053,2.266 -3.882,2.266 -1.25,0 -2.266,-0.256 -3.046,-0.767 -0.782,-0.511 -1.329,-1.277 -1.64,-2.298 -0.313,-1.022 -0.514,-1.944 -0.603,-2.765 -0.09,-0.823 -0.134,-1.921 -0.134,-3.298 v -4.93 h -21.891 c 0,9.993 2.521,17.666 7.565,23.019 5.043,5.351 12.361,8.028 21.958,8.028 6.694,0 12.562,-2.422 17.606,-7.263 5.043,-4.84 7.565,-10.592 7.565,-17.255 V 3.464 c 0,-7.152 0.959,-14.857 2.878,-23.118 z"
       style="fill:#ffffff;fill-opacity:1;fill-rule:nonzero;stroke:none"
       transform="matrix(1.3333333,0,0,-1.3333333,505.43813,885.76813)"
       clip-path="url(#clipPath22)" />
    <path
       id="path23"
       d="m 0,0 v 86.944 h 22.56 v -6.129 c 2.142,2.442 4.72,4.397 7.732,5.863 3.013,1.466 6.147,2.199 9.406,2.199 3.079,0 5.835,-0.967 8.267,-2.898 2.432,-1.933 4.24,-4.309 5.423,-7.129 1.182,-2.822 1.774,-5.742 1.774,-8.761 V 0 h -22.56 v 66.157 c 0,3.864 -1.25,5.797 -3.749,5.797 -0.268,0 -0.547,-0.033 -0.837,-0.1 -0.291,-0.067 -0.58,-0.178 -0.87,-0.333 -0.291,-0.156 -0.547,-0.29 -0.77,-0.4 -0.224,-0.111 -0.492,-0.3 -0.803,-0.566 C 25.26,70.288 25.025,70.089 24.87,69.955 24.713,69.822 24.479,69.589 24.167,69.256 23.854,68.923 23.653,68.7 23.564,68.59 23.474,68.479 23.296,68.267 23.029,67.956 L 22.56,67.424 V 0 Z"
       style="fill:#ffffff;fill-opacity:1;fill-rule:nonzero;stroke:none"
       transform="matrix(1.3333333,0,0,-1.3333333,554.41667,911.97387)"
       clip-path="url(#clipPath24)" />
    <path
       id="path25"
       d="m 0,0 v 17.057 c 5.892,-0.09 9.817,0.787 11.782,2.63 1.963,1.843 2.946,5.697 2.946,11.56 v 90.941 H 39.096 V 31.047 c 0,-4.397 -0.213,-8.14 -0.636,-11.226 C 38.035,16.733 37.243,13.868 36.083,11.227 34.922,8.583 33.338,6.484 31.33,4.931 29.321,3.375 26.722,2.166 23.531,1.3 20.34,0.434 16.49,0 11.983,0 Z"
       style="fill:#ffffff;fill-opacity:1;fill-rule:nonzero;stroke:none"
       transform="matrix(1.3333333,0,0,-1.3333333,677.8124,914.99467)"
       clip-path="url(#clipPath26)" />
    <path
       id="path27"
       d="m 0,0 v 43.039 c 0,4.398 -1.719,6.596 -5.154,6.596 -3.08,0 -4.619,-2.198 -4.619,-6.596 V 0 c 0,-0.978 0.033,-1.789 0.1,-2.432 0.067,-0.644 0.234,-1.399 0.502,-2.265 0.268,-0.866 0.736,-1.522 1.405,-1.966 0.67,-0.444 1.54,-0.666 2.612,-0.666 C -1.719,-7.329 0,-4.887 0,0 m -32.334,0.267 v 36.975 c 0,9.283 2.197,16.49 6.594,21.62 4.395,5.13 11.258,7.696 20.586,7.696 9.327,0 16.244,-2.566 20.753,-7.696 4.506,-5.13 6.76,-12.337 6.76,-21.62 V 0.267 c 0,-7.241 -2.7,-13.137 -8.099,-17.69 -5.402,-4.553 -11.873,-6.828 -19.414,-6.828 -4.866,0 -9.351,0.988 -13.456,2.964 -4.107,1.976 -7.42,4.864 -9.942,8.661 -2.521,3.798 -3.782,8.096 -3.782,12.893"
       style="fill:#ffffff;fill-opacity:1;fill-rule:nonzero;stroke:none"
       transform="matrix(1.3333333,0,0,-1.3333333,792.30733,882.21467)"
       clip-path="url(#clipPath28)" />
    <path
       id="path29"
       d="m 0,0 17.271,6.13 c 0.446,-1.333 0.804,-2.365 1.072,-3.099 0.267,-0.732 0.724,-1.799 1.372,-3.197 0.646,-1.399 1.272,-2.477 1.875,-3.231 0.602,-0.756 1.383,-1.456 2.343,-2.099 0.959,-0.645 1.974,-0.966 3.046,-0.966 2.811,0 4.217,1.643 4.217,4.93 0,1.199 -0.279,2.431 -0.837,3.698 -0.558,1.266 -1.137,2.354 -1.74,3.264 -0.602,0.91 -1.652,2.098 -3.146,3.564 -1.496,1.466 -2.645,2.554 -3.449,3.265 -0.802,0.71 -2.209,1.909 -4.216,3.597 l -3.683,3.132 C 9.35,23.119 5.601,27.183 2.879,31.181 c -2.723,3.997 -4.084,8.438 -4.084,13.324 0,3.774 0.792,7.184 2.377,10.226 1.583,3.042 3.715,5.498 6.392,7.363 2.678,1.865 5.679,3.298 9.004,4.297 3.325,1 6.818,1.5 10.478,1.5 3.257,0 6.381,-0.69 9.372,-2.066 2.989,-1.378 5.611,-3.21 7.866,-5.497 2.253,-2.288 4.205,-4.863 5.858,-7.728 1.65,-2.865 2.921,-5.874 3.815,-9.028 l -16.2,-5.529 c -0.536,1.332 -0.983,2.432 -1.339,3.298 -0.358,0.866 -0.927,1.998 -1.707,3.397 -0.781,1.4 -1.54,2.521 -2.276,3.365 -0.737,0.843 -1.641,1.587 -2.711,2.232 -1.072,0.644 -2.188,0.966 -3.348,0.966 -1.563,0 -2.778,-0.556 -3.648,-1.666 -0.871,-1.111 -1.306,-2.376 -1.306,-3.797 0,-1.955 1.082,-4.143 3.247,-6.563 2.164,-2.421 5.143,-5.208 8.937,-8.361 l 4.151,-3.665 c 2.23,-1.998 4.161,-3.875 5.79,-5.629 1.629,-1.756 3.258,-3.743 4.888,-5.963 1.628,-2.221 2.878,-4.553 3.749,-6.996 0.87,-2.443 1.304,-4.886 1.304,-7.328 0,-7.019 -2.488,-12.815 -7.464,-17.389 -4.976,-4.575 -10.99,-6.862 -18.042,-6.862 -6.828,0 -12.718,2.108 -17.672,6.329 C 5.355,-12.37 1.918,-6.84 0,0"
       style="fill:#ffffff;fill-opacity:1;fill-rule:nonzero;stroke:none"
       transform="matrix(1.3333333,0,0,-1.3333333,835.21613,883.992)"
       clip-path="url(#clipPath30)" />
    <path
       id="path31"
       d="m 0,0 h 8.77 v 11.992 c 0,4.398 -1.497,6.596 -4.486,6.596 C 1.428,18.588 0,16.39 0,11.992 Z M -22.561,-30.78 V 6.195 c 0,9.239 2.209,16.446 6.628,21.62 4.418,5.174 11.157,7.762 20.217,7.762 9.105,0 15.855,-2.577 20.251,-7.728 4.396,-5.154 6.594,-12.37 6.594,-21.654 V -11.793 H 0 v -19.254 c 0,-4.887 1.428,-7.329 4.284,-7.329 3.123,0 4.687,2.62 4.687,7.861 v 9.528 h 22.158 v -9.793 c 0,-7.241 -2.634,-13.137 -7.9,-17.69 -5.266,-4.552 -11.581,-6.828 -18.945,-6.828 -7.364,0 -13.68,2.287 -18.945,6.862 -5.267,4.574 -7.9,10.46 -7.9,17.656"
       style="fill:#ffffff;fill-opacity:1;fill-rule:nonzero;stroke:none"
       transform="matrix(1.3333333,0,0,-1.3333333,948.99613,840.8188)"
       clip-path="url(#clipPath32)" />
  </g>
</svg>
